<svg width="758" height="89" viewBox="0 0 758 89" fill="none" xmlns="http://www.w3.org/2000/svg">
<path d="M60.2301 65.5747V87.4814H29.9707V65.5747H60.2301Z" fill="#6EBE00"/>
<path d="M30.2602 65.6592V87.4813H1.03809V65.6592H30.2602Z" fill="#AFE614"/>
<path d="M119.893 1.55469V65.8743H60.0542V1.55469H119.893Z" fill="#AFE614"/>
<path d="M59.993 1.58008V44.2041H0.956055V1.58008H59.993Z" fill="#6EBE00"/>
<path d="M192.061 60.4924C181.814 60.4924 176.763 56.0894 176.763 46.5824C176.763 36.9754 181.814 32.4724 192.061 32.4724C202.088 32.4724 207.716 36.9754 207.716 46.5824C207.716 56.0894 202.088 60.4924 192.061 60.4924ZM197.02 20.9634C187.654 20.9634 180.528 24.8664 177.002 32.7724V21.9644H164.133L163.633 55.0004L164.133 88.0124H177.064V60.4924C180.59 68.1984 187.323 72.0014 196.248 72.0014C203.851 72.0014 209.912 69.6994 214.319 64.9964C218.616 60.3934 220.82 54.2884 220.82 46.5824C220.82 30.9714 211.895 20.9634 197.02 20.9634Z" fill="white"/>
<path d="M257.925 60.4924C248.118 60.4924 242.145 55.8894 242.145 46.5824C242.145 37.1754 248.118 32.4724 257.925 32.4724C268.172 32.4724 273.348 36.9754 273.348 46.5824C273.348 56.0894 268.172 60.4924 257.925 60.4924ZM272.97 32.9724C269.444 24.9664 262.443 20.9634 253.077 20.9634C238.092 20.9634 229.166 30.9714 229.166 46.5824C229.166 54.2884 231.371 60.3934 235.778 64.9964C240.075 69.6994 246.135 72.0014 253.738 72.0014C262.773 72.0014 269.554 68.0984 272.97 60.2924V71.0004H286.088V21.9644H272.97V32.9724Z" fill="white"/>
<path d="M335.814 22.0482H319.333V7.21924H306.465V22.0482H295.281V33.7182H306.465V55.7572C306.465 64.8832 312.589 71.0002 322.75 71.0002H334.474V59.7682H319.333V33.7182H335.814V22.0482Z" fill="white"/>
<path d="M370.973 60.4924C360.81 60.4924 354.879 56.0894 354.879 46.5824C354.879 36.9754 360.81 32.4724 370.973 32.4724C379.195 32.4724 384.213 35.2744 385.926 43.3804L398.95 40.3784C395.41 27.4684 385.132 20.9634 370.973 20.9634C362.18 20.9634 355.101 23.2654 349.734 27.9684C344.253 32.6714 341.512 38.8764 341.512 46.5824C341.512 54.1884 344.253 60.2934 349.734 64.9964C355.101 69.6994 362.18 72.0014 370.973 72.0014C384.79 72.0014 395.296 65.7964 398.95 52.5864L385.926 49.5844C384.099 57.6904 379.08 60.4924 370.973 60.4924Z" fill="white"/>
<path d="M440.937 20.9632C431.669 20.9632 425.438 23.8752 422.285 31.3102V0.949219H409.229V71.0002H422.285V47.5832C422.285 37.6762 427.649 32.4722 435.689 32.4722C442.724 32.4722 447.671 35.7742 447.671 42.3792V71.0002H460.727V41.6782C460.727 27.8682 454.001 20.9632 440.937 20.9632Z" fill="white"/>
<path d="M493.468 72.0014C508.542 72.0014 517.475 65.9964 517.475 55.8894C517.475 47.9834 512.115 42.9804 502.847 41.8794L491.681 40.3784C486.656 39.6774 484.87 38.1764 484.87 35.2744C484.87 31.8724 487.55 30.1704 492.91 30.1704C500.056 30.1704 502.512 31.8724 503.294 37.8764L515.8 35.1744C513.902 25.6674 506.086 20.9634 492.463 20.9634C478.729 20.9634 471.202 26.5674 471.202 35.8744C471.202 44.1804 476.272 49.0844 486.098 50.5854L495.255 51.8864C501.508 52.7874 504.544 54.1884 504.544 57.2904C504.544 60.5924 500.279 62.2944 494.361 62.2944C487.103 62.2944 483.641 60.2924 482.748 54.1884L469.773 57.4904C471.225 65.8964 479.957 72.0014 493.468 72.0014Z" fill="white"/>
<path d="M563.314 22.0482H546.833V7.21924H533.965V22.0482H522.781V33.7182H533.965V55.7572C533.965 64.8832 540.089 71.0002 550.25 71.0002H561.974V59.7682H546.833V33.7182H563.314V22.0482Z" fill="white"/>
<path d="M598.425 60.4924C588.618 60.4924 582.645 55.8894 582.645 46.5824C582.645 37.1754 588.618 32.4724 598.425 32.4724C608.672 32.4724 613.848 36.9754 613.848 46.5824C613.848 56.0894 608.672 60.4924 598.425 60.4924ZM613.47 32.9724C609.944 24.9664 602.943 20.9634 593.577 20.9634C578.592 20.9634 569.666 30.9714 569.666 46.5824C569.666 54.2884 571.871 60.3934 576.278 64.9964C580.575 69.6994 586.635 72.0014 594.238 72.0014C603.273 72.0014 610.054 68.0984 613.47 60.2924V71.0004H626.588V21.9644H613.47V32.9724Z" fill="white"/>
<path d="M666.223 60.4924C656.06 60.4924 650.129 56.0894 650.129 46.5824C650.129 36.9754 656.06 32.4724 666.223 32.4724C674.445 32.4724 679.463 35.2744 681.176 43.3804L694.2 40.3784C690.66 27.4684 680.382 20.9634 666.223 20.9634C657.43 20.9634 650.351 23.2654 644.984 27.9684C639.503 32.6714 636.762 38.8764 636.762 46.5824C636.762 54.1884 639.503 60.2934 644.984 64.9964C650.351 69.6994 657.43 72.0014 666.223 72.0014C680.04 72.0014 690.546 65.7964 694.2 52.5864L681.176 49.5844C679.349 57.6904 674.33 60.4924 666.223 60.4924Z" fill="white"/>
<path d="M757.777 71.0002L735.238 42.5792L757.091 21.9642H739.998L717.001 44.4962L717.125 1.19922H704.498V71.0002H717.125V59.4832L727.592 50.1722L742.17 71.0002H757.777Z" fill="white"/>
</svg>
