<svg xmlns="http://www.w3.org/2000/svg" viewBox="0 0 1000 108" width="1000" height="108" preserveAspectRatio="xMidYMid meet" style="width: 100%; height: 100%;"><defs><clipPath id="__lottie_element_2"><rect width="1000" height="108" x="0" y="0"></rect></clipPath></defs><g clip-path="url(#__lottie_element_2)"><g transform="matrix(0.3399930000305176,0,0,0.34498801827430725,183.22999572753906,55.01251983642578)" opacity="1" style="display: block;"><g opacity="1" transform="matrix(1,0,0,1,-44.5,94.25)"><path fill="rgb(110,190,0)" fill-opacity="1" d=" M44.5,-31.75 C44.5,-31.75 44.5,31.75 44.5,31.75 C44.5,31.75 -44.5,31.75 -44.5,31.75 C-44.5,31.75 -44.5,-31.75 -44.5,-31.75 C-44.5,-31.75 44.5,-31.75 44.5,-31.75z"></path><path stroke-linecap="butt" stroke-linejoin="miter" fill-opacity="0" stroke-miterlimit="4" stroke="rgb(0,0,239)" stroke-opacity="1" stroke-width="0" d=" M44.5,-31.75 C44.5,-31.75 44.5,31.75 44.5,31.75 C44.5,31.75 -44.5,31.75 -44.5,31.75 C-44.5,31.75 -44.5,-31.75 -44.5,-31.75 C-44.5,-31.75 44.5,-31.75 44.5,-31.75z"></path></g></g><g transform="matrix(0.32833799719810486,0,0,0.3436559736728668,153.25999450683594,55.180362701416016)" opacity="1" style="display: block;"><g opacity="1" transform="matrix(1,0,0,1,-44.5,94.25)"><path fill="rgb(175,230,20)" fill-opacity="1" d=" M44.5,-31.75 C44.5,-31.75 44.5,31.75 44.5,31.75 C44.5,31.75 -44.5,31.75 -44.5,31.75 C-44.5,31.75 -44.5,-31.75 -44.5,-31.75 C-44.5,-31.75 44.5,-31.75 44.5,-31.75z"></path><path stroke-linecap="butt" stroke-linejoin="miter" fill-opacity="0" stroke-miterlimit="4" stroke="rgb(0,0,239)" stroke-opacity="1" stroke-width="0" d=" M44.5,-31.75 C44.5,-31.75 44.5,31.75 44.5,31.75 C44.5,31.75 -44.5,31.75 -44.5,31.75 C-44.5,31.75 -44.5,-31.75 -44.5,-31.75 C-44.5,-31.75 44.5,-31.75 44.5,-31.75z"></path></g></g><g transform="matrix(0.3399930000305176,0,0,0.3349980115890503,182.71420288085938,56.104427337646484)" opacity="1" style="display: block;"><g opacity="1" transform="matrix(1,0,0,1,89,-34)"><path fill="rgb(175,230,20)" fill-opacity="1" d=" M88,-96 C88,-96 88,96 88,96 C88,96 -88,96 -88,96 C-88,96 -88,-96 -88,-96 C-88,-96 88,-96 88,-96z"></path><path stroke-linecap="butt" stroke-linejoin="miter" fill-opacity="0" stroke-miterlimit="4" stroke="rgb(0,0,239)" stroke-opacity="1" stroke-width="0" d=" M88,-96 C88,-96 88,96 88,96 C88,96 -88,96 -88,96 C-88,96 -88,-96 -88,-96 C-88,-96 88,-96 88,-96z"></path></g></g><g transform="matrix(0.3316679894924164,0,0,0.3330000042915344,182.99288940429688,55.5369987487793)" opacity="1" style="display: block;"><g opacity="1" transform="matrix(1,0,0,1,-89,-65)"><path fill="rgb(110,190,0)" fill-opacity="1" d=" M89,-64 C89,-64 89,64 89,64 C89,64 -89,64 -89,64 C-89,64 -89,-64 -89,-64 C-89,-64 89,-64 89,-64z"></path><path stroke-linecap="butt" stroke-linejoin="miter" fill-opacity="0" stroke-miterlimit="4" stroke="rgb(0,0,239)" stroke-opacity="1" stroke-width="0" d=" M89,-64 C89,-64 89,64 89,64 C89,64 -89,64 -89,64 C-89,64 -89,-64 -89,-64 C-89,-64 89,-64 89,-64z"></path></g></g><g transform="matrix(1,0,0,1,313,82)" opacity="1" style="display: block;"><g opacity="1" transform="matrix(1,0,0,1,0,0)"><path fill="rgb(255,255,255)" fill-opacity="1" d=" M2.061000108718872,-10.508000373840332 C-8.185999870300293,-10.508000373840332 -13.237000465393066,-14.91100025177002 -13.237000465393066,-24.417999267578125 C-13.237000465393066,-34.025001525878906 -8.185999870300293,-38.52799987792969 2.061000108718872,-38.52799987792969 C12.088000297546387,-38.52799987792969 17.715999603271484,-34.025001525878906 17.715999603271484,-24.417999267578125 C17.715999603271484,-14.91100025177002 12.088000297546387,-10.508000373840332 2.061000108718872,-10.508000373840332z M7.019999980926514,-50.0369987487793 C-2.3459999561309814,-50.0369987487793 -9.472000122070312,-46.13399887084961 -12.998000144958496,-38.22800064086914 C-12.998000144958496,-38.22800064086914 -12.998000144958496,-49.0359992980957 -12.998000144958496,-49.0359992980957 C-12.998000144958496,-49.0359992980957 -25.867000579833984,-49.0359992980957 -25.867000579833984,-49.0359992980957 C-25.867000579833984,-49.0359992980957 -26.367000579833984,-16 -26.367000579833984,-16 C-26.367000579833984,-16 -25.867000579833984,17.011999130249023 -25.867000579833984,17.011999130249023 C-25.867000579833984,17.011999130249023 -12.935999870300293,17.011999130249023 -12.935999870300293,17.011999130249023 C-12.935999870300293,17.011999130249023 -12.935999870300293,-10.508000373840332 -12.935999870300293,-10.508000373840332 C-9.40999984741211,-2.802000045776367 -2.677000045776367,1.0010000467300415 6.248000144958496,1.0010000467300415 C13.85099983215332,1.0010000467300415 19.91200065612793,-1.3009999990463257 24.319000244140625,-6.004000186920166 C28.615999221801758,-10.607000350952148 30.81999969482422,-16.711999893188477 30.81999969482422,-24.417999267578125 C30.81999969482422,-40.02899932861328 21.895000457763672,-50.0369987487793 7.019999980926514,-50.0369987487793z"></path></g></g><g transform="matrix(1,0,0,1,382.5,82)" opacity="1" style="display: block;"><g opacity="1" transform="matrix(1,0,0,1,0,0)"><path fill="rgb(255,255,255)" fill-opacity="1" d=" M-1.5750000476837158,-10.508000373840332 C-11.381999969482422,-10.508000373840332 -17.354999542236328,-15.111000061035156 -17.354999542236328,-24.417999267578125 C-17.354999542236328,-33.82500076293945 -11.381999969482422,-38.52799987792969 -1.5750000476837158,-38.52799987792969 C8.67199993133545,-38.52799987792969 13.847999572753906,-34.025001525878906 13.847999572753906,-24.417999267578125 C13.847999572753906,-14.91100025177002 8.67199993133545,-10.508000373840332 -1.5750000476837158,-10.508000373840332z M13.470000267028809,-38.02799987792969 C9.944000244140625,-46.034000396728516 2.943000078201294,-50.0369987487793 -6.422999858856201,-50.0369987487793 C-21.408000946044922,-50.0369987487793 -30.333999633789062,-40.02899932861328 -30.333999633789062,-24.417999267578125 C-30.333999633789062,-16.711999893188477 -28.128999710083008,-10.607000350952148 -23.722000122070312,-6.004000186920166 C-19.424999237060547,-1.3009999990463257 -13.364999771118164,1.0010000467300415 -5.76200008392334,1.0010000467300415 C3.2730000019073486,1.0010000467300415 10.053999900817871,-2.9019999504089355 13.470000267028809,-10.708000183105469 C13.470000267028809,-10.708000183105469 13.470000267028809,0 13.470000267028809,0 C13.470000267028809,0 26.58799934387207,0 26.58799934387207,0 C26.58799934387207,0 26.58799934387207,-49.0359992980957 26.58799934387207,-49.0359992980957 C26.58799934387207,-49.0359992980957 13.470000267028809,-49.0359992980957 13.470000267028809,-49.0359992980957 C13.470000267028809,-49.0359992980957 13.470000267028809,-38.02799987792969 13.470000267028809,-38.02799987792969z"></path></g></g><g transform="matrix(1,0,0,1,439,82)" opacity="1" style="display: block;"><g opacity="1" transform="matrix(1,0,0,1,0,0)"><path fill="rgb(255,255,255)" fill-opacity="1" d=" M19.81399917602539,-48.95199966430664 C19.81399917602539,-48.95199966430664 3.3329999446868896,-48.95199966430664 3.3329999446868896,-48.95199966430664 C3.3329999446868896,-48.95199966430664 3.3329999446868896,-63.78099822998047 3.3329999446868896,-63.78099822998047 C3.3329999446868896,-63.78099822998047 -9.53499984741211,-63.78099822998047 -9.53499984741211,-63.78099822998047 C-9.53499984741211,-63.78099822998047 -9.53499984741211,-48.95199966430664 -9.53499984741211,-48.95199966430664 C-9.53499984741211,-48.95199966430664 -20.7189998626709,-48.95199966430664 -20.7189998626709,-48.95199966430664 C-20.7189998626709,-48.95199966430664 -20.7189998626709,-37.28200149536133 -20.7189998626709,-37.28200149536133 C-20.7189998626709,-37.28200149536133 -9.53499984741211,-37.28200149536133 -9.53499984741211,-37.28200149536133 C-9.53499984741211,-37.28200149536133 -9.53499984741211,-15.243000030517578 -9.53499984741211,-15.243000030517578 C-9.53499984741211,-6.117000102996826 -3.4110000133514404,0 6.75,0 C6.75,0 18.474000930786133,0 18.474000930786133,0 C18.474000930786133,0 18.474000930786133,-11.232000350952148 18.474000930786133,-11.232000350952148 C18.474000930786133,-11.232000350952148 3.3329999446868896,-11.232000350952148 3.3329999446868896,-11.232000350952148 C3.3329999446868896,-11.232000350952148 3.3329999446868896,-37.28200149536133 3.3329999446868896,-37.28200149536133 C3.3329999446868896,-37.28200149536133 19.81399917602539,-37.28200149536133 19.81399917602539,-37.28200149536133 C19.81399917602539,-37.28200149536133 19.81399917602539,-48.95199966430664 19.81399917602539,-48.95199966430664z"></path></g></g><g transform="matrix(1,0,0,1,493,82)" opacity="1" style="display: block;"><g opacity="1" transform="matrix(1,0,0,1,0,0)"><path fill="rgb(255,255,255)" fill-opacity="1" d=" M0.9729999899864197,-10.508000373840332 C-9.1899995803833,-10.508000373840332 -15.121000289916992,-14.91100025177002 -15.121000289916992,-24.417999267578125 C-15.121000289916992,-34.025001525878906 -9.1899995803833,-38.52799987792969 0.9729999899864197,-38.52799987792969 C9.194999694824219,-38.52799987792969 14.213000297546387,-35.72600173950195 15.925999641418457,-27.6200008392334 C15.925999641418457,-27.6200008392334 28.950000762939453,-30.621999740600586 28.950000762939453,-30.621999740600586 C25.40999984741211,-43.53200149536133 15.131999969482422,-50.0369987487793 0.9729999899864197,-50.0369987487793 C-7.820000171661377,-50.0369987487793 -14.89900016784668,-47.73500061035156 -20.266000747680664,-43.03200149536133 C-25.746999740600586,-38.32899856567383 -28.488000869750977,-32.124000549316406 -28.488000869750977,-24.417999267578125 C-28.488000869750977,-16.812000274658203 -25.746999740600586,-10.706999778747559 -20.266000747680664,-6.004000186920166 C-14.89900016784668,-1.3009999990463257 -7.820000171661377,1.0010000467300415 0.9729999899864197,1.0010000467300415 C14.789999961853027,1.0010000467300415 25.29599952697754,-5.203999996185303 28.950000762939453,-18.413999557495117 C28.950000762939453,-18.413999557495117 15.925999641418457,-21.416000366210938 15.925999641418457,-21.416000366210938 C14.098999977111816,-13.3100004196167 9.079999923706055,-10.508000373840332 0.9729999899864197,-10.508000373840332z"></path></g></g><g transform="matrix(1,0,0,1,557,82)" opacity="1" style="display: block;"><g opacity="1" transform="matrix(1,0,0,1,0,0)"><path fill="rgb(255,255,255)" fill-opacity="1" d=" M6.936999797821045,-50.0369987487793 C-2.3310000896453857,-50.0369987487793 -8.562000274658203,-47.125 -11.71500015258789,-39.689998626708984 C-11.71500015258789,-39.689998626708984 -11.71500015258789,-70.0510025024414 -11.71500015258789,-70.0510025024414 C-11.71500015258789,-70.0510025024414 -24.770999908447266,-70.0510025024414 -24.770999908447266,-70.0510025024414 C-24.770999908447266,-70.0510025024414 -24.770999908447266,0 -24.770999908447266,0 C-24.770999908447266,0 -11.71500015258789,0 -11.71500015258789,0 C-11.71500015258789,0 -11.71500015258789,-23.41699981689453 -11.71500015258789,-23.41699981689453 C-11.71500015258789,-33.32400131225586 -6.35099983215332,-38.52799987792969 1.6890000104904175,-38.52799987792969 C8.723999977111816,-38.52799987792969 13.670999526977539,-35.22600173950195 13.670999526977539,-28.621000289916992 C13.670999526977539,-28.621000289916992 13.670999526977539,0 13.670999526977539,0 C13.670999526977539,0 26.726999282836914,0 26.726999282836914,0 C26.726999282836914,0 26.726999282836914,-29.32200050354004 26.726999282836914,-29.32200050354004 C26.726999282836914,-43.13199996948242 20.000999450683594,-50.0369987487793 6.936999797821045,-50.0369987487793z"></path></g></g><g transform="matrix(1,0,0,1,616.5,82)" opacity="1" style="display: block;"><g opacity="1" transform="matrix(1,0,0,1,0,0)"><path fill="rgb(255,255,255)" fill-opacity="1" d=" M-0.03200000151991844,1.0010000467300415 C15.041999816894531,1.0010000467300415 23.975000381469727,-5.004000186920166 23.975000381469727,-15.111000061035156 C23.975000381469727,-23.017000198364258 18.614999771118164,-28.020000457763672 9.347000122070312,-29.121000289916992 C9.347000122070312,-29.121000289916992 -1.819000005722046,-30.621999740600586 -1.819000005722046,-30.621999740600586 C-6.843999862670898,-31.322999954223633 -8.630000114440918,-32.82400131225586 -8.630000114440918,-35.72600173950195 C-8.630000114440918,-39.12799835205078 -5.949999809265137,-40.83000183105469 -0.5899999737739563,-40.83000183105469 C6.556000232696533,-40.83000183105469 9.01200008392334,-39.12799835205078 9.793999671936035,-33.124000549316406 C9.793999671936035,-33.124000549316406 22.299999237060547,-35.82600021362305 22.299999237060547,-35.82600021362305 C20.402000427246094,-45.33300018310547 12.586000442504883,-50.0369987487793 -1.0369999408721924,-50.0369987487793 C-14.770999908447266,-50.0369987487793 -22.29800033569336,-44.43299865722656 -22.29800033569336,-35.125999450683594 C-22.29800033569336,-26.81999969482422 -17.22800064086914,-21.916000366210938 -7.4019999504089355,-20.415000915527344 C-7.4019999504089355,-20.415000915527344 1.7549999952316284,-19.11400032043457 1.7549999952316284,-19.11400032043457 C8.008000373840332,-18.21299934387207 11.043999671936035,-16.812000274658203 11.043999671936035,-13.710000038146973 C11.043999671936035,-10.407999992370605 6.7789998054504395,-8.706000328063965 0.8610000014305115,-8.706000328063965 C-6.396999835968018,-8.706000328063965 -9.859000205993652,-10.708000183105469 -10.751999855041504,-16.812000274658203 C-10.751999855041504,-16.812000274658203 -23.726999282836914,-13.510000228881836 -23.726999282836914,-13.510000228881836 C-22.274999618530273,-5.104000091552734 -13.543000221252441,1.0010000467300415 -0.03200000151991844,1.0010000467300415z"></path></g></g><g transform="matrix(1,0,0,1,666.5,82)" opacity="1" style="display: block;"><g opacity="1" transform="matrix(1,0,0,1,0,0)"><path fill="rgb(255,255,255)" fill-opacity="1" d=" M19.81399917602539,-48.95199966430664 C19.81399917602539,-48.95199966430664 3.3329999446868896,-48.95199966430664 3.3329999446868896,-48.95199966430664 C3.3329999446868896,-48.95199966430664 3.3329999446868896,-63.78099822998047 3.3329999446868896,-63.78099822998047 C3.3329999446868896,-63.78099822998047 -9.53499984741211,-63.78099822998047 -9.53499984741211,-63.78099822998047 C-9.53499984741211,-63.78099822998047 -9.53499984741211,-48.95199966430664 -9.53499984741211,-48.95199966430664 C-9.53499984741211,-48.95199966430664 -20.7189998626709,-48.95199966430664 -20.7189998626709,-48.95199966430664 C-20.7189998626709,-48.95199966430664 -20.7189998626709,-37.28200149536133 -20.7189998626709,-37.28200149536133 C-20.7189998626709,-37.28200149536133 -9.53499984741211,-37.28200149536133 -9.53499984741211,-37.28200149536133 C-9.53499984741211,-37.28200149536133 -9.53499984741211,-15.243000030517578 -9.53499984741211,-15.243000030517578 C-9.53499984741211,-6.117000102996826 -3.4110000133514404,0 6.75,0 C6.75,0 18.474000930786133,0 18.474000930786133,0 C18.474000930786133,0 18.474000930786133,-11.232000350952148 18.474000930786133,-11.232000350952148 C18.474000930786133,-11.232000350952148 3.3329999446868896,-11.232000350952148 3.3329999446868896,-11.232000350952148 C3.3329999446868896,-11.232000350952148 3.3329999446868896,-37.28200149536133 3.3329999446868896,-37.28200149536133 C3.3329999446868896,-37.28200149536133 19.81399917602539,-37.28200149536133 19.81399917602539,-37.28200149536133 C19.81399917602539,-37.28200149536133 19.81399917602539,-48.95199966430664 19.81399917602539,-48.95199966430664z"></path></g></g><g transform="matrix(1,0,0,1,723,82)" opacity="1" style="display: block;"><g opacity="1" transform="matrix(1,0,0,1,0,0)"><path fill="rgb(255,255,255)" fill-opacity="1" d=" M-1.5750000476837158,-10.508000373840332 C-11.381999969482422,-10.508000373840332 -17.354999542236328,-15.111000061035156 -17.354999542236328,-24.417999267578125 C-17.354999542236328,-33.82500076293945 -11.381999969482422,-38.52799987792969 -1.5750000476837158,-38.52799987792969 C8.67199993133545,-38.52799987792969 13.847999572753906,-34.025001525878906 13.847999572753906,-24.417999267578125 C13.847999572753906,-14.91100025177002 8.67199993133545,-10.508000373840332 -1.5750000476837158,-10.508000373840332z M13.470000267028809,-38.02799987792969 C9.944000244140625,-46.034000396728516 2.943000078201294,-50.0369987487793 -6.422999858856201,-50.0369987487793 C-21.408000946044922,-50.0369987487793 -30.333999633789062,-40.02899932861328 -30.333999633789062,-24.417999267578125 C-30.333999633789062,-16.711999893188477 -28.128999710083008,-10.607000350952148 -23.722000122070312,-6.004000186920166 C-19.424999237060547,-1.3009999990463257 -13.364999771118164,1.0010000467300415 -5.76200008392334,1.0010000467300415 C3.2730000019073486,1.0010000467300415 10.053999900817871,-2.9019999504089355 13.470000267028809,-10.708000183105469 C13.470000267028809,-10.708000183105469 13.470000267028809,0 13.470000267028809,0 C13.470000267028809,0 26.58799934387207,0 26.58799934387207,0 C26.58799934387207,0 26.58799934387207,-49.0359992980957 26.58799934387207,-49.0359992980957 C26.58799934387207,-49.0359992980957 13.470000267028809,-49.0359992980957 13.470000267028809,-49.0359992980957 C13.470000267028809,-49.0359992980957 13.470000267028809,-38.02799987792969 13.470000267028809,-38.02799987792969z"></path></g></g><g transform="matrix(1,0,0,1,788.25,82)" opacity="1" style="display: block;"><g opacity="1" transform="matrix(1,0,0,1,0,0)"><path fill="rgb(255,255,255)" fill-opacity="1" d=" M0.9729999899864197,-10.508000373840332 C-9.1899995803833,-10.508000373840332 -15.121000289916992,-14.91100025177002 -15.121000289916992,-24.417999267578125 C-15.121000289916992,-34.025001525878906 -9.1899995803833,-38.52799987792969 0.9729999899864197,-38.52799987792969 C9.194999694824219,-38.52799987792969 14.213000297546387,-35.72600173950195 15.925999641418457,-27.6200008392334 C15.925999641418457,-27.6200008392334 28.950000762939453,-30.621999740600586 28.950000762939453,-30.621999740600586 C25.40999984741211,-43.53200149536133 15.131999969482422,-50.0369987487793 0.9729999899864197,-50.0369987487793 C-7.820000171661377,-50.0369987487793 -14.89900016784668,-47.73500061035156 -20.266000747680664,-43.03200149536133 C-25.746999740600586,-38.32899856567383 -28.488000869750977,-32.124000549316406 -28.488000869750977,-24.417999267578125 C-28.488000869750977,-16.812000274658203 -25.746999740600586,-10.706999778747559 -20.266000747680664,-6.004000186920166 C-14.89900016784668,-1.3009999990463257 -7.820000171661377,1.0010000467300415 0.9729999899864197,1.0010000467300415 C14.789999961853027,1.0010000467300415 25.29599952697754,-5.203999996185303 28.950000762939453,-18.413999557495117 C28.950000762939453,-18.413999557495117 15.925999641418457,-21.416000366210938 15.925999641418457,-21.416000366210938 C14.098999977111816,-13.3100004196167 9.079999923706055,-10.508000373840332 0.9729999899864197,-10.508000373840332z"></path></g></g><g transform="matrix(1,0,0,1,850,82)" opacity="1" style="display: block;"><g opacity="1" transform="matrix(1,0,0,1,0,0)"><path fill="rgb(255,255,255)" fill-opacity="1" d=" M30.777000427246094,0 C30.777000427246094,0 8.23799991607666,-28.42099952697754 8.23799991607666,-28.42099952697754 C8.23799991607666,-28.42099952697754 30.090999603271484,-49.0359992980957 30.090999603271484,-49.0359992980957 C30.090999603271484,-49.0359992980957 12.998000144958496,-49.0359992980957 12.998000144958496,-49.0359992980957 C12.998000144958496,-49.0359992980957 -9.99899959564209,-26.503999710083008 -9.99899959564209,-26.503999710083008 C-9.99899959564209,-26.503999710083008 -9.875,-69.8010025024414 -9.875,-69.8010025024414 C-9.875,-69.8010025024414 -22.50200080871582,-69.8010025024414 -22.50200080871582,-69.8010025024414 C-22.50200080871582,-69.8010025024414 -22.50200080871582,0 -22.50200080871582,0 C-22.50200080871582,0 -9.875,0 -9.875,0 C-9.875,0 -9.875,-11.517000198364258 -9.875,-11.517000198364258 C-9.875,-11.517000198364258 0.5920000076293945,-20.827999114990234 0.5920000076293945,-20.827999114990234 C0.5920000076293945,-20.827999114990234 15.170000076293945,0 15.170000076293945,0 C15.170000076293945,0 30.777000427246094,0 30.777000427246094,0z"></path></g></g></g></svg>